<svg id="Layer_2" data-name="Layer 2" xmlns="http://www.w3.org/2000/svg" viewBox="0 0 640 768"><defs><style>.cls-1{fill:#14accc;}</style></defs><title>logo</title><path class="cls-1" d="M443,550l149-5h0c2.33-9.33-4.65,18.67-7,28-17.45,69.14-64.47,113.5-64.47,113.5-31.14,29.38-63.46,41.27-87,48.64Q382.8,751,322.41,751,178,751,102.23,688T26.47,499.12V22H178V471.56q0,81.95,35.84,114.19T320.36,618c21.28,0,67.32-.72,100.34-34.3A107.73,107.73,0,0,0,443,550Z"/><path class="cls-1" d="M544,496.94c8-.15,16-2.84,16-11.62,0-6.84-4.12-9.84-10.7-9.84-7.43,0-11.29,3.09-16.51,16.11-11.13,27.81-21.56,35.59-42.31,35.57-19.68,0-39.13-11-39.1-41.12,0-35.07,24.53-41.52,41-41.5l0,31.35c-5.9,0-15,.78-15,9.9,0,5.5,3.77,8.42,9.54,8.43,6.85,0,10.16-3.52,15.65-17.26,10.23-25.49,21.37-35.22,42.2-35.2,26.41,0,42.13,14,42.1,44.24,0,32.83-20.88,43.4-42.9,43.62Z"/><path class="cls-1" d="M528.33,396.12c17.06,0,30.11-1.5,30.12-12.33,0-9.72-8.74-11.17-14.7-11.55l0-33.28c8.77.87,43.35,4.45,43.31,45.56,0,39.81-33.29,46.28-68.85,46.25-44.12,0-66.63-16.24-66.6-47.08,0-35.39,26.24-45.54,62.44-45.51,4.45,0,11.62.16,14.31.31Zm-24.08-23.68c-12.73,0-24.56.5-24.57,11.36s12.47,12,24.55,12Z"/><path class="cls-1" d="M495,322c-27,0-34.32,0-41.11.19l0-33.43a108.66,108.66,0,0,1,12-1c-6.47-3.74-14.3-11.53-14.28-26.07,0-20.29,14.14-30.19,39.07-30.17l94.17.09,0,34.81-87-.09c-10.09,0-15.83,1.65-15.83,9.89,0,7.43,4.43,10.95,18.92,11l83.94.08,0,34.81Z"/><path class="cls-1" d="M544.26,184.73c8-.16,16-2.84,16-11.63,0-6.84-4.12-9.83-10.7-9.84-7.43,0-11.28,3.1-16.51,16.12C522,207.18,511.53,215,490.78,214.94c-19.68,0-39.13-11-39.1-41.11,0-35.07,24.53-41.53,41-41.51l0,31.36c-5.89,0-15,.77-15,9.9,0,5.49,3.78,8.42,9.55,8.43,6.84,0,10.15-3.52,15.64-17.26,10.23-25.5,21.38-35.22,42.21-35.2,26.41,0,42.12,14,42.09,44.24,0,32.83-20.87,43.4-42.9,43.62Z"/><path class="cls-1" d="M528.64,83.9c17.05,0,30.11-1.49,30.11-12.32,0-9.73-8.74-11.17-14.7-11.55l0-33.28c8.78.86,43.35,4.44,43.31,45.55,0,39.81-33.28,46.29-68.84,46.25-44.13,0-66.64-16.24-66.61-47.08,0-35.39,26.25-45.54,62.44-45.5,4.45,0,11.62.16,14.31.31ZM504.55,60.23c-12.72,0-24.56.5-24.57,11.35s12.47,12,24.55,12Z"/></svg>